<svg width="800px" height="800px" viewBox="0 0 24 24" fill="none" xmlns="http://www.w3.org/2000/svg">
<path d="M12 4C7.58172 4 4 7.58172 4 12C4 16.4183 7.58172 20 12 20C16.4183 20 20 16.4183 20 12C20 7.58172 16.4183 4 12 4Z" fill="#0088cc"/>
<path d="M15.5 9L15.1777 15.5187C15.1777 15.5187 15.0776 16.2013 14.4029 15.8991L10.5 13.5" fill="#0088cc"/>
<path d="M10.7778 13.4813L15.1777 9.00002C15.3444 8.83213 15.5 8.8889 15.5 9.11113L15.1777 15.5187C15.1777 15.5187 15.0776 16.2013 14.4029 15.8991L10.7778 13.4813Z" fill="white"/>
<path d="M10.7778 13.4813L14.4029 15.8991C14.4029 15.8991 14.6667 16.0556 14.7778 15.8333C14.8889 15.6111 15.5 9.00002 15.5 9.00002" fill="#D2E5F1"/>
</svg>